<svg width="172" height="110" viewBox="0 0 172 110" fill="none" xmlns="http://www.w3.org/2000/svg">
<path d="M154.079 43.1431C154.195 44.9894 152.944 46.5704 151.285 46.6748C149.626 46.7791 148.188 45.3666 148.071 43.5202C147.955 41.6739 149.206 40.093 150.865 39.9886C152.523 39.8847 153.963 41.2973 154.079 43.1431Z" fill="#0FD15D"/>
<g opacity="0.6">
<path d="M148.193 44.2539C148.543 42.9649 149.579 41.9974 150.864 41.9167C152.295 41.827 153.56 42.8664 153.956 44.3376C154.058 43.9619 154.104 43.5601 154.078 43.1436C153.962 41.2973 152.523 39.8852 150.864 39.9891C149.205 40.0935 147.954 41.6744 148.07 43.5207C148.087 43.7743 148.13 44.019 148.193 44.2539Z" fill="white"/>
</g>
<path d="M151.11 47.4098C150.178 47.4098 149.289 47.0381 148.588 46.3493C147.852 45.627 147.409 44.6389 147.342 43.566C147.2 41.3214 148.76 39.3899 150.818 39.2604C152.876 39.1334 154.666 40.8527 154.808 43.0973C154.875 44.1701 154.56 45.2061 153.921 46.0145C153.263 46.8466 152.343 47.3394 151.331 47.4029C151.257 47.4074 151.183 47.4098 151.11 47.4098ZM151.035 40.7133C150.994 40.7133 150.952 40.7148 150.91 40.7173C149.656 40.796 148.71 42.0328 148.801 43.4744C148.845 44.1874 149.133 44.8388 149.612 45.3085C150.069 45.757 150.646 45.9845 151.239 45.9461C151.832 45.9091 152.377 45.6122 152.774 45.11C153.19 44.5847 153.394 43.9023 153.35 43.1889C153.261 41.7955 152.236 40.7133 151.035 40.7133Z" fill="#371A45"/>
<path d="M151.583 46.6103C152.534 48.5078 152.099 50.6485 150.613 51.3915C149.127 52.1345 147.151 51.198 146.2 49.3005C145.249 47.4029 145.683 45.2627 147.17 44.5192C148.656 43.7768 150.632 44.7132 151.583 46.6103Z" fill="#0FD15D"/>
<g opacity="0.6">
<path d="M147.169 46.3803C148.656 45.6374 150.632 46.5738 151.582 48.4713C151.764 48.8332 151.894 49.2035 151.977 49.5718C152.197 48.6767 152.084 47.6112 151.582 46.6107C150.631 44.7132 148.656 43.7772 147.169 44.5197C145.966 45.1214 145.453 46.6378 145.805 48.2005C146.002 47.3975 146.467 46.7314 147.169 46.3803Z" fill="white"/>
</g>
<path d="M149.526 52.3728C148 52.3728 146.403 51.3364 145.546 49.6274C144.416 47.3734 144.998 44.7896 146.842 43.8674C148.686 42.9452 151.106 44.0294 152.235 46.2843C152.768 47.3473 152.943 48.5172 152.728 49.5797C152.499 50.7076 151.864 51.583 150.939 52.0449C150.494 52.2669 150.013 52.3728 149.526 52.3728ZM148.279 44.9919C148.006 44.9919 147.742 45.05 147.496 45.1726C146.373 45.7344 146.084 47.4399 146.853 48.9741C147.622 50.5087 149.162 51.3009 150.285 50.7387C150.799 50.4821 151.157 49.9671 151.295 49.2892C151.446 48.5452 151.316 47.7097 150.928 46.9372C150.328 45.7373 149.256 44.9919 148.279 44.9919Z" fill="#371A45"/>
<path d="M157.002 49.0971C156.195 51.5175 154.003 52.9689 152.106 52.3382C150.21 51.7075 149.327 49.2339 150.134 46.813C150.941 44.3926 153.133 42.9412 155.03 43.5719C156.926 44.2031 157.808 46.6767 157.002 49.0971Z" fill="#0FD15D"/>
<g opacity="0.6">
<path d="M150.134 48.8155C150.941 46.3951 153.133 44.9436 155.029 45.5743C156.172 45.9544 156.943 47.0056 157.202 48.3098C157.601 46.1617 156.72 44.1347 155.029 43.5729C153.133 42.9422 150.942 44.3932 150.134 46.8141C149.814 47.7756 149.764 48.7436 149.934 49.6032C149.982 49.3413 150.047 49.0779 150.134 48.8155Z" fill="white"/>
</g>
<path d="M153.01 53.2137C152.629 53.2137 152.248 53.1546 151.876 53.031C149.6 52.2743 148.508 49.3817 149.441 46.5831C149.883 45.2582 150.71 44.1426 151.77 43.4405C152.885 42.7019 154.126 42.5025 155.26 42.8802C157.535 43.6369 158.628 46.529 157.695 49.328C156.914 51.6687 154.96 53.2137 153.01 53.2137ZM154.113 44.1554C153.606 44.1554 153.079 44.3252 152.577 44.6576C151.788 45.1799 151.167 46.0278 150.828 47.0445C150.149 49.0794 150.827 51.1438 152.337 51.6465C153.848 52.1477 155.629 50.9016 156.308 48.8672C156.986 46.8323 156.309 44.7678 154.798 44.2656C154.577 44.1918 154.347 44.1554 154.113 44.1554ZM157.002 49.0971H157.004H157.002Z" fill="#371A45"/>
<path d="M145.187 52.2895C145.187 52.8641 145.269 53.4584 145.453 54.0649C146.21 56.5641 148.476 58.3794 151.087 58.5232C154.702 58.7221 157.695 55.8537 157.695 52.2871C157.695 52.2831 157.695 52.2787 157.695 52.2748C157.694 51.5377 157.199 50.8942 156.501 50.6524C154.949 50.1143 153.238 49.8159 151.441 49.8159C149.644 49.8159 147.934 50.1143 146.382 50.652C145.679 50.8957 145.186 51.5466 145.187 52.2895Z" fill="#EFDADA"/>
<g opacity="0.3">
<path d="M157.339 51.2551C156.318 53.5367 153.968 55.0954 151.272 54.9468C148.836 54.8128 146.702 53.223 145.811 50.9808C145.429 51.3024 145.186 51.7716 145.187 52.289C145.187 52.8636 145.269 53.4579 145.453 54.0645C146.21 56.5641 148.476 58.3789 151.087 58.5227C154.702 58.7216 157.695 55.8532 157.695 52.2866C157.695 52.2821 157.695 52.2782 157.695 52.2743C157.694 51.8956 157.561 51.5426 157.339 51.2551Z" fill="#371A45"/>
</g>
<path d="M151.446 59.3849C151.312 59.3849 151.176 59.3809 151.04 59.3735C148.078 59.2106 145.505 57.1762 144.637 54.3116C144.436 53.6499 144.334 52.9695 144.334 52.2896C144.334 51.196 145.045 50.2148 146.103 49.848C147.793 49.2621 149.589 48.9647 151.441 48.9647C153.293 48.9647 155.09 49.2621 156.781 49.8485C157.836 50.2143 158.546 51.1886 158.548 52.2733C158.548 54.2575 157.759 56.0886 156.326 57.443C154.991 58.7034 153.272 59.3849 151.446 59.3849ZM151.441 50.6672C149.78 50.6672 148.172 50.9326 146.661 51.4565C146.289 51.5855 146.039 51.9198 146.039 52.2891C146.039 52.8016 146.116 53.3161 146.269 53.8178C146.93 55.9999 148.885 57.5489 151.134 57.6725C152.634 57.7562 154.064 57.2343 155.153 56.2052C156.242 55.1757 156.842 53.7838 156.842 52.2866C156.842 51.9139 156.592 51.5845 156.221 51.456C154.71 50.9331 153.102 50.6672 151.441 50.6672Z" fill="#371A45"/>
<path d="M157.168 54.9566C155.338 54.4091 153.411 54.1314 151.441 54.1314C149.474 54.1314 147.55 54.4081 145.723 54.9541L145.127 52.9655C147.147 52.3619 149.272 52.0562 151.441 52.0562C153.613 52.0562 155.741 52.3629 157.764 52.9685L157.168 54.9566Z" fill="#371A45"/>
<path d="M164.506 64.3867V85.6657H138.747V58.1623C141.087 56.122 150.179 55.9738 153.594 57.1988L162.19 60.8787C163.594 61.4778 164.506 62.8594 164.506 64.3867Z" fill="#979797"/>
<g opacity="0.6">
<path d="M162.189 60.8787L153.593 57.1988C150.178 55.9743 141.086 56.1225 138.746 58.1624V60.4469C141.086 58.4066 150.178 58.2584 153.593 59.4833L162.189 63.1632C163.594 63.7624 164.506 65.1439 164.506 66.6712V64.3867C164.506 62.8594 163.594 61.4779 162.189 60.8787Z" fill="white"/>
</g>
<g opacity="0.3">
<path d="M162.425 60.9894C162.426 61.0096 162.427 61.0298 162.427 61.0505V67.7628C162.427 75.8078 156.423 82.33 149.017 82.33H143.422C140.84 82.33 138.747 80.0563 138.747 77.2519V85.6662H164.506V64.3872C164.506 62.9465 163.695 61.6369 162.425 60.9894Z" fill="#371A45"/>
</g>
<path d="M146.17 75.7566C147.482 75.7566 148.546 74.6946 148.546 73.3844C148.546 72.0743 147.482 71.0123 146.17 71.0123C144.859 71.0123 143.795 72.0743 143.795 73.3844C143.795 74.6946 144.859 75.7566 146.17 75.7566Z" fill="#606060"/>
<path d="M146.17 76.6079C144.39 76.6079 142.942 75.1618 142.942 73.3839C142.942 71.6065 144.39 70.1605 146.17 70.1605C147.95 70.1605 149.398 71.6065 149.398 73.3839C149.398 75.1618 147.95 76.6079 146.17 76.6079ZM146.17 71.8635C145.33 71.8635 144.648 72.5459 144.648 73.3844C144.648 74.2229 145.33 74.9053 146.17 74.9053C147.01 74.9053 147.693 74.2229 147.693 73.3844C147.693 72.5459 147.01 71.8635 146.17 71.8635Z" fill="#371A45"/>
<path d="M148.942 64.3399C148.942 65.8687 147.701 67.1079 146.17 67.1079C144.64 67.1079 143.399 65.8687 143.399 64.3399C143.399 62.8117 144.64 61.5724 146.17 61.5724C147.701 61.5724 148.942 62.8117 148.942 64.3399Z" fill="#606060"/>
<path d="M146.17 67.9592C144.172 67.9592 142.546 66.3354 142.546 64.3399C142.546 62.3444 144.172 60.7211 146.17 60.7211C148.168 60.7211 149.794 62.3444 149.794 64.3399C149.794 66.3359 148.169 67.9592 146.17 67.9592ZM146.17 62.4242C145.112 62.4242 144.252 63.2838 144.252 64.3404C144.252 65.397 145.112 66.2566 146.17 66.2566C147.228 66.2566 148.089 65.397 148.089 64.3404C148.089 63.2833 147.228 62.4242 146.17 62.4242Z" fill="#371A45"/>
<path d="M164.506 86.5175H138.746C138.276 86.5175 137.894 86.1364 137.894 85.6662V58.1623C137.894 57.9167 138.001 57.6828 138.186 57.5208C140.853 55.1954 150.312 55.1166 153.882 56.3972C153.898 56.4032 153.914 56.4091 153.929 56.416L162.526 60.0958C164.246 60.8299 165.359 62.5142 165.359 64.3867V85.6657C165.359 86.1359 164.976 86.5175 164.506 86.5175ZM139.599 84.8144H163.653V64.3867C163.653 63.1971 162.947 62.1278 161.855 61.6615L153.282 57.9915C150.055 56.8492 142.028 57.0462 139.6 58.5882V84.8144H139.599Z" fill="#371A45"/>
<path d="M153.265 83.9794C153.265 84.3846 153.306 85.6657 153.594 85.6657C153.882 85.6657 153.922 84.3836 153.922 83.9794C153.922 60.4547 153.594 59.6448 153.594 59.6448C153.594 59.6448 153.265 60.3873 153.265 83.9794Z" fill="#371A45"/>
<path d="M17.2452 55.7139C17.2452 55.7139 19.3405 56.3293 18.6503 58.7906C17.9601 61.2524 17.8861 62.2612 18.3052 62.9998C18.3052 62.9998 16.2345 62.2612 16.3824 60.3169C16.5303 58.3726 17.9847 57.1417 17.2452 55.7139Z" fill="white"/>
<path d="M20.9177 53.5229C20.9177 53.5229 22.4954 55.1969 21.041 57.0428C19.5866 58.8886 20.0549 61.0303 22.2489 61.9412C22.2489 61.9412 21.9338 60.3396 23.1856 58.2244C24.7874 55.5169 20.9177 53.5229 20.9177 53.5229Z" fill="white"/>
<path d="M26.1926 54.8769C26.1926 54.8769 26.7349 56.0586 25.6502 57.609C24.5656 59.1599 25.6502 60.5134 25.6502 60.5134C25.6502 60.5134 27.0307 59.4548 27.6223 57.9531C28.2139 56.4515 26.1926 54.8769 26.1926 54.8769Z" fill="white"/>
<path d="M12.7697 78.3543C11.5973 78.3543 10.5383 77.9899 9.72233 77.2938C8.70869 76.4282 8.1501 75.1264 8.1501 73.6282C8.1501 72.1299 8.70869 70.8282 9.72233 69.9626C10.7508 69.0842 12.1657 68.7327 13.7089 68.9774C16.2726 69.3806 18.1327 71.3368 18.1327 73.6287C18.1327 75.9206 16.2721 77.8767 13.7089 78.2799C13.3894 78.3297 13.0753 78.3543 12.7697 78.3543ZM12.7574 72.1496C12.4334 72.1496 12.0903 72.2156 11.8364 72.4323C11.5573 72.6701 11.4035 73.095 11.4035 73.6277C11.4035 74.1604 11.5573 74.5853 11.8364 74.8231C12.2136 75.1446 12.7874 75.1348 13.2021 75.0693C14.2517 74.9039 14.8793 74.2067 14.8793 73.6277C14.8793 73.0487 14.2517 72.351 13.2021 72.1861C13.0665 72.1649 12.9141 72.1496 12.7574 72.1496Z" fill="white"/>
<g opacity="0.3">
<path d="M13.7083 68.9764C12.1652 68.7317 10.7507 69.0833 9.72176 69.9616C9.71338 69.9685 9.70648 69.9774 9.6981 69.9843C10.7536 70.4328 11.6189 71.2221 12.0927 72.2767C12.2997 72.1851 12.532 72.1492 12.7568 72.1492C12.9136 72.1492 13.0659 72.1644 13.2015 72.1856C14.2511 72.351 14.8787 73.0482 14.8787 73.6272C14.8787 74.2062 14.2511 74.9039 13.2015 75.0688C12.955 75.1077 12.6532 75.1254 12.3688 75.0668C12.1173 76.1545 11.467 77.1746 10.5791 77.8545C11.2304 78.181 11.9724 78.3533 12.7691 78.3533C13.0748 78.3533 13.3888 78.3287 13.7083 78.278C16.272 77.8747 18.1321 75.9186 18.1321 73.6267C18.1321 71.3348 16.272 69.3797 13.7083 68.9764Z" fill="#371A45"/>
</g>
<path d="M12.7691 79.2026C11.3838 79.2026 10.1394 78.7654 9.17012 77.9387C7.9642 76.9087 7.30059 75.378 7.30059 73.6282C7.30059 71.8783 7.96469 70.3476 9.17012 69.3176C10.3923 68.2738 12.0523 67.8553 13.842 68.1389C16.8203 68.6076 18.9822 70.9158 18.9822 73.6277C18.9822 76.3396 16.8198 78.6482 13.841 79.1164C13.4811 79.1735 13.1207 79.2026 12.7691 79.2026ZM12.7691 69.7494C11.7999 69.7494 10.9336 70.0438 10.274 70.6066C9.45212 71.3087 8.99904 72.3815 8.99904 73.6277C8.99904 74.8738 9.45163 75.9467 10.274 76.6488C11.1077 77.3607 12.2924 77.6438 13.5757 77.441C15.7243 77.1027 17.2837 75.4991 17.2837 73.6277C17.2837 71.7558 15.7248 70.1522 13.5767 69.8144C13.3011 69.7706 13.0314 69.7494 12.7691 69.7494ZM12.7583 75.9545C12.1637 75.9545 11.6613 75.7901 11.2842 75.4681C10.8133 75.0668 10.554 74.413 10.554 73.6277C10.554 72.8424 10.8133 72.189 11.2842 71.7873C11.7787 71.3653 12.4931 71.2161 13.3337 71.3481C14.6983 71.5632 15.7277 72.543 15.7277 73.6277C15.7277 74.7123 14.6983 75.6921 13.3337 75.9073C13.134 75.9388 12.9417 75.9545 12.7583 75.9545ZM12.7573 72.9975C12.5532 72.9975 12.4324 73.0383 12.3875 73.0772C12.3501 73.1092 12.253 73.2707 12.253 73.6277C12.253 73.9851 12.3501 74.1461 12.3875 74.1781C12.4472 74.2288 12.6562 74.2963 13.0689 74.2313C13.7645 74.1215 14.0224 73.7232 14.0293 73.6257C14.0224 73.5317 13.7641 73.1329 13.0694 73.0236C12.9585 73.0063 12.8535 72.9975 12.7573 72.9975Z" fill="#371A45"/>
<path d="M31.847 69.6717C31.2781 73.8035 30.2482 77.6109 29.0023 81.2656H17.6151C16.3643 77.5956 15.3309 73.7715 14.7635 69.6205C14.6274 68.6249 15.2747 67.6831 16.2524 67.4467C21.9433 66.0721 27.5553 66.9002 30.3068 67.4881C31.3106 67.7033 31.9875 68.656 31.847 69.6717Z" fill="white"/>
<g opacity="0.3">
<path d="M31.4191 68.168C31.5063 69.2763 31.4506 70.4284 31.2288 71.5864C31.1045 72.2328 30.9754 72.8744 30.8413 73.5115C30.185 76.6251 28.0399 78.7664 25.6098 78.7664H22.2248C19.7947 78.7664 17.6491 76.6251 16.9934 73.5115C16.8593 72.8749 16.7301 72.2333 16.6059 71.5874C16.3312 70.1571 16.313 68.7357 16.5013 67.393C16.4185 67.4122 16.3357 67.4275 16.2524 67.4472C15.2747 67.6835 14.6274 68.6254 14.7635 69.6209C15.3314 73.7719 16.3643 77.5961 17.6151 81.2661H29.0028C30.2486 77.6113 31.2786 73.8039 31.8475 69.6721C31.9244 69.1138 31.7538 68.5756 31.4191 68.168Z" fill="#371A45"/>
</g>
<path d="M29.0028 82.1139H17.6151C17.2517 82.1139 16.9283 81.883 16.8109 81.5388C15.3585 77.277 14.4405 73.5263 13.9219 69.7352C13.7261 68.3014 14.6422 66.9632 16.0527 66.6225C21.8777 65.2158 27.5952 66.0415 30.4848 66.6589C31.9205 66.9662 32.8882 68.3403 32.6891 69.7874C32.1694 73.5607 31.2539 77.2948 29.8074 81.5388C29.6895 81.8825 29.3661 82.1139 29.0028 82.1139ZM18.2249 80.4178H28.3924C29.6915 76.5154 30.5247 73.0492 31.0059 69.5564C31.0848 68.9843 30.6992 68.4403 30.1288 68.3182C27.3807 67.7313 21.9502 66.944 16.4515 68.2719C15.9003 68.4053 15.5281 68.9474 15.6045 69.5067C16.0847 73.0157 16.9204 76.4976 18.2249 80.4178Z" fill="#371A45"/>
<path d="M25.5882 70.6554C25.0547 70.2575 24.2541 70.2817 23.3725 70.708L23.3055 70.741C22.2105 71.2964 21.3403 72.1324 20.9642 73.0068C20.6871 73.6508 20.6664 74.3116 20.9223 74.926C21.0568 75.251 21.2856 75.5159 21.5844 75.6857C21.8422 75.8349 22.1218 75.9235 22.4112 75.9516C22.7913 75.9885 23.1862 75.9211 23.5796 75.7478C24.5681 75.3091 25.4595 74.2279 25.9328 72.9271C25.9333 72.9246 25.9333 72.9222 25.9333 72.9222L25.9579 72.8537C26.2912 71.8661 26.1463 71.0739 25.5882 70.6554ZM24.5316 71.6401C24.2205 71.8331 23.9154 72.2033 23.7428 72.7489C23.6348 73.0763 23.4756 73.4189 23.2601 73.6863C23.0442 73.961 22.7824 74.1644 22.5472 74.2692C22.0685 74.4809 21.7806 74.3608 21.8013 74.2707C21.8141 74.1752 22.0651 74.1009 22.3614 73.8552C22.5093 73.7316 22.6596 73.5691 22.7923 73.3604C22.9264 73.1511 23.0314 72.9089 23.132 72.6199C23.2444 72.2875 23.4258 71.9709 23.6541 71.7292C23.8784 71.4889 24.1481 71.3294 24.3768 71.255C24.8437 71.1078 25.1213 71.2162 25.104 71.2935C25.0961 71.3811 24.8403 71.4426 24.5316 71.6401Z" fill="#A55942"/>
<path d="M12.7346 81.2646H34.3761C34.3761 81.2646 33.9817 84.8583 29.1014 84.8583C24.221 84.8583 17.0732 84.8583 17.0732 84.8583C17.0732 84.8583 12.7346 84.2187 12.7346 81.2646Z" fill="white"/>
<g opacity="0.3">
<path d="M12.7346 81.2646H34.3761C34.3761 81.2646 33.9817 84.8583 29.1014 84.8583C24.221 84.8583 17.0732 84.8583 17.0732 84.8583C17.0732 84.8583 12.7346 84.2187 12.7346 81.2646Z" fill="#371A45"/>
</g>
<path d="M29.1008 85.7066H17.0726C17.0312 85.7066 16.9898 85.7037 16.9489 85.6973C16.7423 85.6667 11.8851 84.9085 11.8851 81.2646C11.8851 80.7964 12.2652 80.4163 12.7346 80.4163H34.3761C34.6177 80.4163 34.8474 80.5187 35.0086 80.6984C35.1698 80.8781 35.2467 81.1174 35.2206 81.3572C35.055 82.8618 33.5636 85.7066 29.1008 85.7066ZM17.1431 84.0105H29.1008C31.6497 84.0105 32.7388 82.946 33.2007 82.1129H13.7862C14.4833 83.4807 16.7601 83.9415 17.1431 84.0105Z" fill="#371A45"/>
<path d="M167.55 91.5862H3.86523C2.19538 91.5862 0.841557 90.2347 0.841557 88.5666V88.0024C0.841557 86.3801 2.12537 85.0477 3.74888 84.9852L79.855 82.0537C83.7553 81.9036 87.6595 81.9036 91.5598 82.0537L167.666 84.9852C169.289 85.0477 170.573 86.3805 170.573 88.0024V88.5666C170.573 90.2347 169.219 91.5862 167.55 91.5862Z" fill="#D19D71"/>
<g opacity="0.6">
<path d="M167.666 85.2314L91.5598 82.3C87.6595 82.1498 83.7553 82.1498 79.855 82.3L3.74888 85.2314C2.12537 85.2939 0.841557 86.6268 0.841557 88.2486V88.8128C0.841557 88.9684 0.85684 89.1195 0.879519 89.2687C1.09447 87.8606 2.28067 86.7651 3.74839 86.7085L79.8545 83.777C83.7548 83.6268 87.659 83.6268 91.5593 83.777L167.665 86.7085C169.133 86.7651 170.32 87.8606 170.534 89.2687C170.557 89.1195 170.572 88.9684 170.572 88.8128V88.2486C170.573 86.6263 169.289 85.2939 167.666 85.2314Z" fill="white"/>
</g>
<g opacity="0.3">
<path d="M167.55 88.7976H3.86523C2.58881 88.7976 1.49924 88.0063 1.05553 86.8892C0.918467 87.2343 0.841557 87.6095 0.841557 88.0024V88.5666C0.841557 90.2347 2.19538 91.5862 3.86523 91.5862H167.549C169.219 91.5862 170.573 90.2347 170.573 88.5666V88.0024C170.573 87.6095 170.496 87.2338 170.359 86.8892C169.916 88.0063 168.826 88.7976 167.55 88.7976Z" fill="#371A45"/>
</g>
<path d="M167.55 92.4267H3.86526C1.73394 92.4267 0 90.6951 0 88.5666V88.0024C0 85.9197 1.63238 84.2255 3.71637 84.1453L79.8225 81.2138C83.7277 81.0636 87.6876 81.0632 91.5923 81.2138L167.698 84.1453C169.782 84.2255 171.415 85.9197 171.415 88.0024V88.5666C171.415 90.6951 169.681 92.4267 167.55 92.4267ZM85.7077 82.782C83.7632 82.782 81.8187 82.8194 79.8876 82.8937L3.78145 85.8252C2.60511 85.8705 1.68366 86.8271 1.68366 88.0024V88.5666C1.68366 89.768 2.6623 90.7458 3.86526 90.7458H167.549C168.752 90.7458 169.731 89.7685 169.731 88.5666V88.0024C169.731 86.8271 168.81 85.8705 167.633 85.8252L91.5272 82.8937C89.5966 82.8194 87.6521 82.782 85.7077 82.782Z" fill="#371A45"/>
<path d="M126.798 4.1581H42.9581C38.6462 4.1581 35.1398 7.66217 35.1398 11.9658V55.4889C35.1398 59.7926 38.6457 63.2937 42.9581 63.2937H126.798C131.107 63.2937 134.613 59.7926 134.613 55.4889V11.9658C134.613 7.66217 131.107 4.1581 126.798 4.1581Z" fill="#979797"/>
<g opacity="0.6">
<path d="M126.798 3.91189H42.9581C38.6457 3.91189 35.1398 7.41597 35.1398 11.7196V14.0283C35.1398 9.72462 38.6457 6.22054 42.9581 6.22054H126.798C131.107 6.22054 134.613 9.72462 134.613 14.0283V11.7196C134.613 7.41597 131.107 3.91189 126.798 3.91189Z" fill="white"/>
</g>
<path d="M126.798 64.1346H42.958C38.1827 64.1346 34.2982 60.2563 34.2982 55.4894V11.9658C34.2982 7.19686 38.1832 3.31761 42.958 3.31761H126.798C131.571 3.31761 135.455 7.19735 135.455 11.9658V55.4889C135.455 60.2563 131.571 64.1346 126.798 64.1346ZM42.958 4.9985C39.111 4.9985 35.9818 8.12396 35.9818 11.9658V55.4889C35.9818 59.3292 39.1115 62.4532 42.958 62.4532H126.798C130.643 62.4532 133.771 59.3292 133.771 55.4889V11.9658C133.771 8.12396 130.643 4.9985 126.798 4.9985H42.958Z" fill="#371A45"/>
<path d="M127.577 11.1844H42.1753V11.2874H127.577V11.1844Z" fill="#D3EEF5"/>
<path d="M127.577 11.2874H42.1753V11.5621H127.577V11.2874Z" fill="#D2EEF5"/>
<path d="M127.577 11.5621H42.1753V11.8368H127.577V11.5621Z" fill="#D1EDF5"/>
<path d="M127.577 11.8368H42.1753V12.1116H127.577V11.8368Z" fill="#D0EDF5"/>
<path d="M127.577 12.1115H42.1753V12.3863H127.577V12.1115Z" fill="#CFECF4"/>
<path d="M127.577 12.3868H42.1753V12.6615H127.577V12.3868Z" fill="#CEECF4"/>
<path d="M127.577 12.6615H42.1753V12.9363H127.577V12.6615Z" fill="#CDECF4"/>
<path d="M127.577 12.9362H42.1753V13.211H127.577V12.9362Z" fill="#CCEBF4"/>
<path d="M127.577 13.211H42.1753V13.4857H127.577V13.211Z" fill="#CBEBF3"/>
<path d="M127.577 13.4857H42.1753V13.7604H127.577V13.4857Z" fill="#CAEAF3"/>
<path d="M127.577 13.7609H42.1753V14.0357H127.577V13.7609Z" fill="#C9EAF3"/>
<path d="M127.577 14.0356H42.1753V14.3104H127.577V14.0356Z" fill="#C8EAF3"/>
<path d="M127.577 14.3104H42.1753V14.5851H127.577V14.3104Z" fill="#C7E9F3"/>
<path d="M127.577 14.5852H42.1753V14.8599H127.577V14.5852Z" fill="#C6E9F2"/>
<path d="M127.577 14.8599H42.1753V15.1346H127.577V14.8599Z" fill="#C5E9F2"/>
<path d="M127.577 15.1346H42.1753V15.4094H127.577V15.1346Z" fill="#C4E8F2"/>
<path d="M127.577 15.4098H42.1753V15.6845H127.577V15.4098Z" fill="#C3E8F2"/>
<path d="M127.577 15.6846H42.1753V15.9593H127.577V15.6846Z" fill="#C2E7F1"/>
<path d="M127.577 15.9593H42.1753V16.234H127.577V15.9593Z" fill="#C1E7F1"/>
<path d="M127.577 16.234H42.1753V16.5088H127.577V16.234Z" fill="#C0E7F1"/>
<path d="M127.577 16.5087H42.1753V16.7835H127.577V16.5087Z" fill="#BFE6F1"/>
<path d="M127.577 16.7835H42.1753V17.0582H127.577V16.7835Z" fill="#BEE6F1"/>
<path d="M127.577 17.0587H42.1753V17.3335H127.577V17.0587Z" fill="#BDE5F0"/>
<path d="M127.577 17.3334H42.1753V17.6082H127.577V17.3334Z" fill="#BCE5F0"/>
<path d="M127.577 17.6082H42.1753V17.8829H127.577V17.6082Z" fill="#BBE5F0"/>
<path d="M127.577 17.8829H42.1753V18.1576H127.577V17.8829Z" fill="#BAE4F0"/>
<path d="M127.577 18.1577H42.1753V18.4324H127.577V18.1577Z" fill="#B9E4EF"/>
<path d="M127.577 18.4324H42.1753V18.7071H127.577V18.4324Z" fill="#B8E3EF"/>
<path d="M127.577 18.7076H42.1753V18.9823H127.577V18.7076Z" fill="#B7E3EF"/>
<path d="M127.577 18.9824H42.1753V19.2571H127.577V18.9824Z" fill="#B6E3EF"/>
<path d="M127.577 19.2571H42.1753V19.5318H127.577V19.2571Z" fill="#B5E2EE"/>
<path d="M127.577 19.5318H42.1753V19.8066H127.577V19.5318Z" fill="#B4E2EE"/>
<path d="M127.577 19.8065H42.1753V20.0813H127.577V19.8065Z" fill="#B3E2EE"/>
<path d="M127.577 20.0813H42.1753V20.356H127.577V20.0813Z" fill="#B2E1EE"/>
<path d="M127.577 20.3565H42.1753V20.6312H127.577V20.3565Z" fill="#B1E1EE"/>
<path d="M127.577 20.6312H42.1753V20.906H127.577V20.6312Z" fill="#B0E0ED"/>
<path d="M127.577 20.906H42.1753V21.1807H127.577V20.906Z" fill="#AFE0ED"/>
<path d="M127.577 21.1807H42.1753V21.4554H127.577V21.1807Z" fill="#AEE0ED"/>
<path d="M127.577 21.4555H42.1753V21.7302H127.577V21.4555Z" fill="#ADDFED"/>
<path d="M127.577 21.7306H42.1753V22.0054H127.577V21.7306Z" fill="#ACDFEC"/>
<path d="M127.577 22.0054H42.1753V22.2801H127.577V22.0054Z" fill="#ABDEEC"/>
<path d="M127.577 22.2801H42.1753V22.5548H127.577V22.2801Z" fill="#AADEEC"/>
<path d="M127.577 22.5549H42.1753V22.8296H127.577V22.5549Z" fill="#A9DEEC"/>
<path d="M127.577 22.8296H42.1753V23.1043H127.577V22.8296Z" fill="#A8DDEC"/>
<path d="M127.577 23.1043H42.1753V23.3791H127.577V23.1043Z" fill="#A7DDEB"/>
<path d="M127.577 23.3796H42.1753V23.6543H127.577V23.3796Z" fill="#A6DCEB"/>
<path d="M127.577 23.6543H42.1753V23.929H127.577V23.6543Z" fill="#A5DCEB"/>
<path d="M127.577 23.929H42.1753V24.2038H127.577V23.929Z" fill="#A4DCEB"/>
<path d="M127.577 24.2037H42.1753V24.4785H127.577V24.2037Z" fill="#A3DBEA"/>
<path d="M127.577 24.4785H42.1753V24.7532H127.577V24.4785Z" fill="#A2DBEA"/>
<path d="M127.577 24.7532H42.1753V25.0279H127.577V24.7532Z" fill="#A1DBEA"/>
<path d="M127.577 25.0284H42.1753V25.3032H127.577V25.0284Z" fill="#A0DAEA"/>
<path d="M127.577 25.3032H42.1753V25.5779H127.577V25.3032Z" fill="#9FDAEA"/>
<path d="M127.577 25.5779H42.1753V25.8526H127.577V25.5779Z" fill="#9ED9E9"/>
<path d="M127.577 25.8527H42.1753V26.1274H127.577V25.8527Z" fill="#9DD9E9"/>
<path d="M127.577 26.1274H42.1753V26.4021H127.577V26.1274Z" fill="#9CD9E9"/>
<path d="M127.577 26.4021H42.1753V26.6769H127.577V26.4021Z" fill="#9BD8E9"/>
<path d="M127.577 26.6773H42.1753V26.952H127.577V26.6773Z" fill="#9AD8E8"/>
<path d="M127.577 26.9521H42.1753V27.2268H127.577V26.9521Z" fill="#99D7E8"/>
<path d="M127.577 27.2268H42.1753V27.5016H127.577V27.2268Z" fill="#98D7E8"/>
<path d="M127.577 27.5015H42.1753V27.7763H127.577V27.5015Z" fill="#97D7E8"/>
<path d="M127.577 27.7763H42.1753V28.051H127.577V27.7763Z" fill="#96D6E8"/>
<path d="M127.577 28.051H42.1753V28.3257H127.577V28.051Z" fill="#95D6E7"/>
<path d="M127.577 28.3262H42.1753V28.601H127.577V28.3262Z" fill="#94D5E7"/>
<path d="M127.577 28.6009H42.1753V28.8757H127.577V28.6009Z" fill="#93D5E7"/>
<path d="M127.577 28.8757H42.1753V29.1504H127.577V28.8757Z" fill="#92D5E7"/>
<path d="M127.577 29.1504H42.1753V29.4251H127.577V29.1504Z" fill="#91D4E6"/>
<path d="M127.577 29.4252H42.1753V29.6999H127.577V29.4252Z" fill="#90D4E6"/>
<path d="M127.577 29.7004H42.1753V29.9751H127.577V29.7004Z" fill="#8FD3E6"/>
<path d="M127.577 29.9751H42.1753V30.2498H127.577V29.9751Z" fill="#8ED3E6"/>
<path d="M127.577 30.2499H42.1753V30.5246H127.577V30.2499Z" fill="#8DD3E5"/>
<path d="M127.577 30.5246H42.1753V30.7994H127.577V30.5246Z" fill="#8CD2E5"/>
<path d="M127.577 30.7993H42.1753V31.0741H127.577V30.7993Z" fill="#8BD2E5"/>
<path d="M127.577 31.074H42.1753V31.3488H127.577V31.074Z" fill="#8AD1E5"/>
<path d="M127.577 31.3493H42.1753V31.624H127.577V31.3493Z" fill="#89D1E5"/>
<path d="M127.577 31.624H42.1753V31.8988H127.577V31.624Z" fill="#88D1E4"/>
<path d="M127.577 31.8987H42.1753V32.1735H127.577V31.8987Z" fill="#87D0E4"/>
<path d="M127.577 32.1735H42.1753V32.4482H127.577V32.1735Z" fill="#86D0E4"/>
<path d="M127.577 32.4482H42.1753V32.7229H127.577V32.4482Z" fill="#85D0E4"/>
<path d="M127.577 32.723H42.1753V32.9977H127.577V32.723Z" fill="#84CFE3"/>
<path d="M127.577 32.9981H42.1753V33.2729H127.577V32.9981Z" fill="#83CFE3"/>
<path d="M127.577 33.2729H42.1753V33.5476H127.577V33.2729Z" fill="#82CEE3"/>
<path d="M127.577 33.5477H42.1753V33.8224H127.577V33.5477Z" fill="#81CEE3"/>
<path d="M127.577 33.8224H42.1753V34.0971H127.577V33.8224Z" fill="#80CEE3"/>
<path d="M127.577 34.0971H42.1753V34.3719H127.577V34.0971Z" fill="#7FCDE2"/>
<path d="M127.577 34.3718H42.1753V34.6466H127.577V34.3718Z" fill="#7ECDE2"/>
<path d="M127.577 34.6471H42.1753V34.9218H127.577V34.6471Z" fill="#7DCCE2"/>
<path d="M127.577 34.9218H42.1753V35.1965H127.577V34.9218Z" fill="#7CCCE2"/>
<path d="M127.577 35.1965H42.1753V35.4713H127.577V35.1965Z" fill="#7BCCE1"/>
<path d="M127.577 35.4712H42.1753V35.746H127.577V35.4712Z" fill="#7ACBE1"/>
<path d="M127.577 35.746H42.1753V36.0207H127.577V35.746Z" fill="#79CBE1"/>
<path d="M127.577 36.0212H42.1753V36.296H127.577V36.0212Z" fill="#78CAE1"/>
<path d="M127.577 36.2959H42.1753V36.5707H127.577V36.2959Z" fill="#77CAE0"/>
<path d="M127.577 36.5707H42.1753V36.8454H127.577V36.5707Z" fill="#76CAE0"/>
<path d="M127.577 36.8455H42.1753V37.1202H127.577V36.8455Z" fill="#75C9E0"/>
<path d="M127.577 37.1202H42.1753V37.3949H127.577V37.1202Z" fill="#74C9E0"/>
<path d="M127.577 37.3949H42.1753V37.6696H127.577V37.3949Z" fill="#73C8E0"/>
<path d="M127.577 37.6701H42.1753V37.9448H127.577V37.6701Z" fill="#72C8DF"/>
<path d="M127.577 37.9449H42.1753V38.2196H127.577V37.9449Z" fill="#71C8DF"/>
<path d="M127.577 38.2196H42.1753V38.4943H127.577V38.2196Z" fill="#70C7DF"/>
<path d="M127.577 38.4943H42.1753V38.7691H127.577V38.4943Z" fill="#6FC7DF"/>
<path d="M127.577 38.7691H42.1753V39.0438H127.577V38.7691Z" fill="#6EC6DE"/>
<path d="M127.577 39.0438H42.1753V39.3185H127.577V39.0438Z" fill="#6DC6DE"/>
<path d="M127.577 39.319H42.1753V39.5937H127.577V39.319Z" fill="#6CC6DE"/>
<path d="M127.577 39.5937H42.1753V39.8685H127.577V39.5937Z" fill="#6BC5DE"/>
<path d="M127.577 39.8685H42.1753V40.1432H127.577V39.8685Z" fill="#6AC5DE"/>
<path d="M127.577 40.1432H42.1753V40.4179H127.577V40.1432Z" fill="#69C4DD"/>
<path d="M127.577 40.418H42.1753V40.6927H127.577V40.418Z" fill="#68C4DD"/>
<path d="M127.577 40.6927H42.1753V40.9674H127.577V40.6927Z" fill="#67C4DD"/>
<path d="M127.577 40.9679H42.1753V41.2426H127.577V40.9679Z" fill="#66C3DD"/>
<path d="M127.577 41.2426H42.1753V41.5173H127.577V41.2426Z" fill="#65C3DC"/>
<path d="M127.577 41.5174H42.1753V41.7921H127.577V41.5174Z" fill="#64C3DC"/>
<path d="M127.577 41.7921H42.1753V42.0669H127.577V41.7921Z" fill="#63C2DC"/>
<path d="M127.577 42.0668H42.1753V42.3416H127.577V42.0668Z" fill="#62C2DC"/>
<path d="M127.577 42.3416H42.1753V42.6163H127.577V42.3416Z" fill="#61C1DB"/>
<path d="M127.577 42.6168H42.1753V42.8916H127.577V42.6168Z" fill="#60C1DB"/>
<path d="M127.577 42.8915H42.1753V43.1663H127.577V42.8915Z" fill="#5FC1DB"/>
<path d="M127.577 43.1663H42.1753V43.441H127.577V43.1663Z" fill="#5EC0DB"/>
<path d="M127.577 43.441H42.1753V43.7157H127.577V43.441Z" fill="#5DC0DB"/>
<path d="M127.577 43.7157H42.1753V43.9904H127.577V43.7157Z" fill="#5CBFDA"/>
<path d="M127.577 43.9909H42.1753V44.2657H127.577V43.9909Z" fill="#5BBFDA"/>
<path d="M127.577 44.2657H42.1753V44.5404H127.577V44.2657Z" fill="#5ABFDA"/>
<path d="M127.577 44.5404H42.1753V44.8151H127.577V44.5404Z" fill="#59BEDA"/>
<path d="M127.577 44.8152H42.1753V45.0899H127.577V44.8152Z" fill="#58BED9"/>
<path d="M127.577 45.0899H42.1753V45.3647H127.577V45.0899Z" fill="#57BDD9"/>
<path d="M127.577 45.3646H42.1753V45.6394H127.577V45.3646Z" fill="#56BDD9"/>
<path d="M127.577 45.6399H42.1753V45.9146H127.577V45.6399Z" fill="#55BDD9"/>
<path d="M127.577 45.9146H42.1753V46.1893H127.577V45.9146Z" fill="#54BCD9"/>
<path d="M127.577 46.1893H42.1753V46.4641H127.577V46.1893Z" fill="#53BCD8"/>
<path d="M127.577 46.464H42.1753V46.7388H127.577V46.464Z" fill="#52BBD8"/>
<path d="M127.577 46.7388H42.1753V47.0135H127.577V46.7388Z" fill="#51BBD8"/>
<path d="M127.577 47.0135H42.1753V47.2882H127.577V47.0135Z" fill="#50BBD8"/>
<path d="M127.577 47.2887H42.1753V47.5635H127.577V47.2887Z" fill="#4EBAD7"/>
<path d="M127.577 47.5634H42.1753V47.8382H127.577V47.5634Z" fill="#4DBAD7"/>
<path d="M127.577 47.8382H42.1753V48.1129H127.577V47.8382Z" fill="#4CB9D7"/>
<path d="M127.577 48.113H42.1753V48.3877H127.577V48.113Z" fill="#4BB9D7"/>
<path d="M127.577 48.3877H42.1753V48.6624H127.577V48.3877Z" fill="#4AB9D6"/>
<path d="M127.577 48.6624H42.1753V48.9371H127.577V48.6624Z" fill="#49B8D6"/>
<path d="M127.577 48.9376H42.1753V49.2123H127.577V48.9376Z" fill="#48B8D6"/>
<path d="M127.577 49.2124H42.1753V49.4871H127.577V49.2124Z" fill="#47B7D6"/>
<path d="M127.577 49.4871H42.1753V49.7619H127.577V49.4871Z" fill="#46B7D6"/>
<path d="M127.577 49.7618H42.1753V50.0366H127.577V49.7618Z" fill="#45B7D5"/>
<path d="M127.577 50.0365H42.1753V50.3113H127.577V50.0365Z" fill="#44B6D5"/>
<path d="M127.577 50.3113H42.1753V50.586H127.577V50.3113Z" fill="#43B6D5"/>
<path d="M127.577 50.5865H42.1753V50.8613H127.577V50.5865Z" fill="#42B5D5"/>
<path d="M127.577 50.8612H42.1753V51.136H127.577V50.8612Z" fill="#41B5D4"/>
<path d="M127.577 51.136H42.1753V51.4107H127.577V51.136Z" fill="#40B5D4"/>
<path d="M127.577 51.4107H42.1753V51.6855H127.577V51.4107Z" fill="#3FB4D4"/>
<path d="M127.577 51.6854H42.1753V51.9602H127.577V51.6854Z" fill="#3EB4D4"/>
<path d="M127.577 51.9606H42.1753V52.2354H127.577V51.9606Z" fill="#3DB3D4"/>
<path d="M127.577 52.2354H42.1753V52.5101H127.577V52.2354Z" fill="#3CB3D3"/>
<path d="M127.577 52.5102H42.1753V52.7849H127.577V52.5102Z" fill="#3BB3D3"/>
<path d="M127.577 52.7849H42.1753V53.0596H127.577V52.7849Z" fill="#3AB2D3"/>
<path d="M127.577 53.0596H42.1753V53.3343H127.577V53.0596Z" fill="#39B2D3"/>
<path d="M127.577 53.3343H42.1753V53.609H127.577V53.3343Z" fill="#38B1D2"/>
<path d="M127.577 53.6096H42.1753V53.8843H127.577V53.6096Z" fill="#37B1D2"/>
<path d="M127.577 53.8843H42.1753V54.1591H127.577V53.8843Z" fill="#36B1D2"/>
<path d="M127.577 54.159H42.1753V54.4338H127.577V54.159Z" fill="#35B0D2"/>
<path d="M127.577 54.4338H42.1753V54.7085H127.577V54.4338Z" fill="#34B0D1"/>
<path d="M127.577 54.7085H42.1753V54.9832H127.577V54.7085Z" fill="#33AFD1"/>
<path d="M127.577 54.9832H42.1753V55.258H127.577V54.9832Z" fill="#32AFD1"/>
<path d="M127.577 55.2585H42.1753V55.5332H127.577V55.2585Z" fill="#31AFD1"/>
<path d="M127.577 55.5332H42.1753V55.8079H127.577V55.5332Z" fill="#30AED1"/>
<path d="M127.577 55.808H42.1753V56.0827H127.577V55.808Z" fill="#2FAED0"/>
<path d="M127.577 56.0827H42.1753V56.2678H127.577V56.0827Z" fill="#2EAED0"/>
<g opacity="0.3">
<path d="M112.962 53.5322H56.7942C48.7541 53.5322 42.1757 46.9628 42.1757 38.9335V53.5834C42.1757 55.06 43.3856 56.2678 44.8637 56.2678H124.892C126.375 56.2678 127.578 55.0669 127.578 53.5859V38.9364C127.578 46.9972 121.034 53.5322 112.962 53.5322Z" fill="#371A45"/>
</g>
<path d="M124.892 57.1082H44.8637C42.9173 57.1082 41.3337 55.5268 41.3337 53.5829V14.0632C41.3337 12.0121 43.0046 10.3435 45.0585 10.3435H124.892C126.837 10.3435 128.419 11.9234 128.419 13.8658V53.5864C128.419 55.5282 126.837 57.1082 124.892 57.1082ZM45.0585 12.0249C43.9329 12.0249 43.0174 12.9392 43.0174 14.0637V53.5834C43.0174 54.6001 43.8456 55.4273 44.8637 55.4273H124.893C125.909 55.4273 126.736 54.6016 126.736 53.5864V13.8658C126.736 12.8505 125.909 12.0249 124.893 12.0249H45.0585Z" fill="#371A45"/>
<g opacity="0.3">
<path d="M126.798 56.2677H42.9581C38.6462 56.2677 35.1399 52.7666 35.1399 48.4629V55.4888C35.1399 59.7925 38.6457 63.2936 42.9581 63.2936H126.798C131.107 63.2936 134.613 59.7925 134.613 55.4888V48.4629C134.613 52.7666 131.107 56.2677 126.798 56.2677Z" fill="#371A45"/>
</g>
<path d="M110.11 42.1923C109.389 42.1923 108.707 42.3563 108.094 42.6423C105.326 35.1989 96.0644 29.7259 85.0573 29.7259C74.1981 29.7259 65.0383 35.0532 62.1369 42.3435C61.7607 42.2484 61.3688 42.1923 60.963 42.1923C58.3229 42.1923 56.1827 44.3296 56.1827 46.9662C56.1827 49.6027 58.3229 51.74 60.963 51.74C61.2909 51.74 61.6104 51.7065 61.92 51.644C64.5616 59.2238 73.919 64.8273 85.0578 64.8273C96.3267 64.8273 105.767 59.0904 108.28 51.3762C108.843 51.6095 109.461 51.74 110.11 51.74C112.75 51.74 114.89 49.6027 114.89 46.9662C114.89 44.3296 112.75 42.1923 110.11 42.1923Z" fill="#FFCDA4"/>
<g opacity="0.3">
<path d="M107.4 42.1923C106.744 42.1923 106.124 42.3563 105.566 42.6423C103.049 35.1989 94.6242 29.7259 84.612 29.7259C74.7344 29.7259 66.4024 35.0532 63.7633 42.3435C63.4211 42.2484 63.0647 42.1923 62.6954 42.1923C60.2939 42.1923 58.3475 44.3296 58.3475 46.9662C58.3475 49.6027 60.2944 51.74 62.6954 51.74C62.9937 51.74 63.2846 51.7065 63.5656 51.644C65.9685 59.2238 74.48 64.8273 84.612 64.8273C94.8623 64.8273 103.449 59.0904 105.735 51.3762C106.248 51.6095 106.81 51.74 107.4 51.74C109.802 51.74 111.749 49.6027 111.749 46.9662C111.749 44.3296 109.801 42.1923 107.4 42.1923Z" fill="#371A45"/>
</g>
<path d="M85.0573 65.6677C74.0891 65.6677 64.4743 60.3139 61.3663 52.5662C61.2317 52.5761 61.0971 52.581 60.9625 52.581C57.8624 52.581 55.3406 50.0621 55.3406 46.9662C55.3406 43.8703 57.8629 41.3519 60.9625 41.3519C61.1814 41.3519 61.4033 41.3657 61.6266 41.3932C63.2087 37.9044 66.2289 34.7893 70.2017 32.5673C74.5082 30.1582 79.6454 28.885 85.0573 28.885C95.7705 28.885 105.284 34.0606 108.567 41.569C109.068 41.4247 109.584 41.3519 110.11 41.3519C113.21 41.3519 115.732 43.8703 115.732 46.9662C115.732 50.0621 113.21 52.581 110.11 52.581C109.665 52.581 109.226 52.5293 108.798 52.4264C105.751 60.2637 96.1413 65.6677 85.0573 65.6677ZM61.9199 50.8031C62.272 50.8031 62.5949 51.0242 62.7142 51.3673C65.3035 58.7974 74.4914 63.9863 85.0573 63.9863C90.3069 63.9863 95.4451 62.6663 99.5249 60.2696C103.49 57.9402 106.315 54.6892 107.479 51.1152C107.552 50.8922 107.714 50.71 107.928 50.6121C108.141 50.5141 108.385 50.5092 108.602 50.5993C109.083 50.7982 109.59 50.8991 110.11 50.8991C112.282 50.8991 114.049 49.1345 114.049 46.9657C114.049 44.7969 112.282 43.0323 110.11 43.0323C109.536 43.0323 108.978 43.1573 108.449 43.4035C108.236 43.503 107.992 43.5084 107.774 43.4193C107.557 43.3302 107.386 43.1544 107.304 42.9343C104.597 35.6519 95.4486 30.5659 85.0568 30.5659C74.8543 30.5659 65.7507 35.5362 62.9183 42.6532C62.762 43.0451 62.3405 43.2607 61.9298 43.1578C61.6005 43.0746 61.2746 43.0323 60.962 43.0323C58.7903 43.0323 57.0238 44.7969 57.0238 46.9657C57.0238 49.1345 58.7903 50.8991 60.962 50.8991C61.2258 50.8991 61.4915 50.8725 61.7513 50.8198C61.808 50.809 61.8642 50.8031 61.9199 50.8031Z" fill="#371A45"/>
<path d="M57.4315 64.8273C57.4315 64.8273 48.7218 69.0522 47.647 74.9073C46.5723 80.7624 51.7509 83.0065 51.7509 83.0065H61.913L57.4315 64.8273Z" fill="#FFCDA4"/>
<path d="M61.9136 83.8469H51.7515C51.6361 83.8469 51.5223 83.8233 51.4163 83.7775C51.3586 83.7524 45.6376 81.1932 46.8194 74.7556C47.9582 68.5535 56.6925 64.2513 57.0638 64.0711C57.2925 63.9603 57.5588 63.9583 57.789 64.0661C58.0192 64.174 58.1883 64.3798 58.249 64.626L62.731 82.8051C62.7926 83.0562 62.7359 83.3211 62.5762 83.5244C62.4165 83.7283 62.1724 83.8469 61.9136 83.8469ZM51.9394 82.166H60.8393L56.8735 66.0804C54.6736 67.324 49.2608 70.7799 48.4749 75.0594C47.6176 79.7309 51.1505 81.7727 51.9394 82.166Z" fill="#371A45"/>
<path d="M112.755 66.0272C112.755 66.0272 121.464 69.9729 122.539 75.4419C123.614 80.9105 118.435 83.007 118.435 83.007H108.273L112.755 66.0272Z" fill="#FFCDA4"/>
<g opacity="0.3">
<path d="M54.4396 78.3788C51.4361 78.3788 48.8823 76.4705 47.9249 73.861C47.807 74.2037 47.7129 74.5522 47.6478 74.9072C46.573 80.7623 51.7517 83.0064 51.7517 83.0064H61.9137L60.7729 78.3788H54.4396Z" fill="#371A45"/>
</g>
<g opacity="0.3">
<path d="M122.539 75.4419C122.477 75.1248 122.386 74.8137 122.276 74.5074C122.221 74.6487 122.162 74.7856 122.099 74.9185C121.075 77.0691 118.836 78.3788 116.451 78.3788H109.494L108.273 83.0064H118.435C118.435 83.0069 123.614 80.9105 122.539 75.4419Z" fill="#371A45"/>
</g>
<path d="M118.435 83.8474H108.273C108.011 83.8474 107.765 83.7263 107.606 83.52C107.446 83.3137 107.392 83.0449 107.459 82.7928L111.941 65.8135C112.004 65.5742 112.17 65.3748 112.393 65.2684C112.618 65.1621 112.876 65.1596 113.102 65.262C113.474 65.4304 122.22 69.4534 123.365 75.28C124.32 80.1439 120.765 82.9705 118.751 83.7859C118.651 83.8262 118.543 83.8474 118.435 83.8474ZM109.365 82.166H118.257C119.023 81.8061 122.556 79.8938 121.713 75.6034C120.93 71.6168 115.485 68.388 113.305 67.2413L109.365 82.166Z" fill="#371A45"/>
<path d="M68.1187 13.5758C68.1187 13.5758 72.7117 3.57311 89.8603 0.841037L88.2964 4.06152C88.2964 4.06152 95.0389 3.37863 101.39 7.20864C107.742 11.0387 112.774 12.0145 112.774 12.0145L108.866 14.1612L113.067 15.3812L109.696 16.9912C109.696 16.9912 112.236 18.7479 113.947 22.2116C115.657 25.6758 116.878 26.4567 116.878 26.4567L113.263 26.7497C113.263 26.7497 114.68 34.4102 112.823 40.0698L111.357 38.5085C111.357 38.5085 106.569 52.7558 95.2342 58.6104C84.3385 64.2385 70.4625 59.9934 61.3318 43.6202C60.5593 42.2347 60.0697 40.7079 59.9036 39.1309C59.6753 36.9724 59.5096 33.6662 60.0569 30.3596C60.0569 30.3596 58.4447 31.0912 57.9073 32.0188C57.9073 32.0188 57.8092 28.1155 58.7869 27.1396L56.1487 28.3597C56.1487 28.3597 57.1259 16.2596 68.1187 13.5758Z" fill="#9E6C4B"/>
<g opacity="0.3">
<path d="M105.715 43.8717C113.166 24.4499 105.715 20.8217 105.715 20.8217C107.694 23.4563 106.301 27.628 106.301 27.628C103.809 18.8454 90.0313 17.3452 90.0313 17.3452C91.6804 15.6983 95.9677 14.6008 95.9677 14.6008C88.1263 12.9908 82.9959 16.845 82.9959 16.845L85.5364 11.9657C76.0335 14.4054 73.9328 21.7242 73.9328 21.7242C68.5096 19.1871 63.2328 23.7246 63.2328 23.7246C67.7277 22.4558 70.4639 23.3342 70.4639 23.3342C61.3766 23.7734 57.9077 32.0193 57.9077 32.0193C58.4451 31.0922 60.0573 30.3601 60.0573 30.3601C59.51 33.6662 59.6757 36.9729 59.904 39.1313C60.0706 40.7083 60.5597 42.2351 61.3322 43.6206C70.4629 59.9933 84.3384 64.2389 95.2346 58.6108C106.57 52.7557 111.358 38.509 111.358 38.509C110.332 40.9363 105.715 43.8717 105.715 43.8717Z" fill="#371A45"/>
</g>
<g opacity="0.6">
<path d="M87.5884 4.57407C87.5884 4.57407 95.8208 6.2008 102.172 10.0308C105.092 11.792 107.732 12.948 109.734 13.6851L112.774 12.015C112.774 12.015 107.742 11.0392 101.39 7.20914C97.2574 4.71685 92.9608 4.13587 90.4622 4.03396L87.5884 4.57407Z" fill="white"/>
</g>
<path d="M109.711 17.0016C109.706 16.9981 109.696 16.9917 109.696 16.9917L113.068 15.3817L112.738 15.2862L109.647 16.9839L109.711 17.0016Z" fill="white"/>
<path d="M59.5687 29.9618L57.9289 30.72C57.8939 31.4639 57.9077 32.0193 57.9077 32.0193C58.1572 31.5885 58.6388 31.201 59.083 30.9086C59.2043 30.5053 59.3621 30.1681 59.5687 29.9618Z" fill="white"/>
<g opacity="0.6">
<path d="M69.5656 15.2591C69.5656 15.2591 73.1686 7.13282 88.5306 4.0438C88.3807 4.05315 88.2969 4.06152 88.2969 4.06152L89.8607 0.841037C72.7116 3.57311 68.1191 13.5758 68.1191 13.5758C57.1263 16.2596 56.1492 28.3597 56.1492 28.3597L57.7781 27.6064C59.0866 23.4834 62.2621 17.0424 69.5656 15.2591Z" fill="white"/>
</g>
<path d="M85.678 61.7989C82.8747 61.7989 80.0488 61.2494 77.3066 60.1455C70.7919 57.5228 65.0137 51.9498 60.5967 44.0293C59.7601 42.5291 59.2454 40.9108 59.0664 39.2195C58.8722 37.384 58.7267 34.7785 58.992 32.0287C58.8396 32.1661 58.7139 32.3059 58.6355 32.4403C58.4467 32.7662 58.0631 32.9272 57.6993 32.8337C57.334 32.7406 57.0751 32.4167 57.0658 32.04C57.051 31.4517 57.047 30.0499 57.2792 28.7629L56.5017 29.1223C56.2306 29.2474 55.9126 29.2203 55.6666 29.049C55.421 28.8781 55.285 28.5896 55.3091 28.2917C55.3195 28.1618 55.5852 25.0713 57.2521 21.6095C59.4229 17.1015 62.9751 14.0819 67.5414 12.8555C68.5772 10.9525 73.9945 2.51703 89.7272 0.0104615C90.0388 -0.0387739 90.3489 0.0882533 90.5357 0.339354C90.7226 0.590946 90.7541 0.925254 90.6176 1.20737L89.6651 3.1694C92.0562 3.1758 97.0204 3.59036 101.826 6.48836C107.958 10.1854 112.887 11.179 112.936 11.1889C113.284 11.2568 113.552 11.535 113.606 11.8846C113.661 12.2341 113.491 12.5802 113.181 12.7506L111.052 13.9199L113.303 14.5738C113.638 14.6713 113.878 14.9647 113.907 15.3123C113.935 15.6599 113.746 15.9888 113.431 16.139L111.242 17.1842C112.196 18.071 113.607 19.6224 114.702 21.8394C116.241 24.956 117.337 25.7507 117.348 25.7586C117.652 25.9531 117.79 26.3144 117.703 26.6645C117.616 27.0146 117.307 27.2647 116.947 27.2937L114.237 27.5133C114.556 29.7575 115.162 35.6401 113.623 40.3308C113.531 40.6129 113.296 40.8256 113.006 40.8896C112.716 40.9541 112.413 40.8605 112.209 40.6439L111.67 40.0693C110.182 43.7802 105.23 54.3929 95.6212 59.3563C92.4758 60.982 89.0946 61.7989 85.678 61.7989ZM60.0574 29.5197C60.2393 29.5197 60.4198 29.5787 60.5696 29.693C60.8161 29.882 60.9389 30.1907 60.8881 30.497C60.3581 33.6993 60.5159 36.9119 60.7412 39.0428C60.896 40.5075 61.3422 41.9097 62.0679 43.2115C70.2471 57.8787 83.4205 63.7668 94.8482 57.864C105.754 52.2305 110.513 38.3801 110.56 38.2412C110.654 37.9606 110.889 37.7503 111.178 37.6873C111.468 37.6248 111.769 37.7178 111.972 37.9335L112.408 38.3988C113.571 33.2128 112.448 26.9698 112.435 26.9018C112.392 26.668 112.45 26.4267 112.595 26.2381C112.739 26.0496 112.958 25.9309 113.195 25.9117L115.085 25.7586C114.561 25.0609 113.913 24.0442 113.192 22.5839C111.608 19.3752 109.239 17.6983 109.216 17.6815C108.97 17.5102 108.834 17.2212 108.858 16.9233C108.882 16.6254 109.063 16.362 109.333 16.233L110.713 15.5733L108.63 14.9682C108.304 14.8731 108.066 14.591 108.029 14.2533C107.992 13.9155 108.162 13.5881 108.46 13.4246L110.529 12.2883C108.438 11.6443 104.964 10.3455 100.955 7.928C94.9349 4.29788 88.4448 4.89165 88.3803 4.89756C88.0766 4.9276 87.7807 4.79171 87.6062 4.54208C87.4317 4.29246 87.4056 3.96849 87.5387 3.69474L88.3822 1.95673C73.2461 4.91873 68.9263 13.8357 68.8829 13.9283C68.7749 14.1597 68.5669 14.332 68.3184 14.3926C64.0336 15.4389 60.8295 18.0956 58.7938 22.289C57.9275 24.0742 57.4656 25.7778 57.2265 26.9353L58.4329 26.3775C58.8036 26.2061 59.2434 26.3253 59.4766 26.6591C59.7103 26.9929 59.6704 27.4464 59.3815 27.7349C59.1113 28.0052 58.9116 28.9776 58.813 30.0809C59.2562 29.8052 59.625 29.6329 59.7083 29.5955C59.8202 29.5443 59.9391 29.5197 60.0574 29.5197ZM68.1187 13.5758H68.1212H68.1187Z" fill="#371A45"/>
<path d="M115.602 67.2423C113.652 66.0956 110.018 63.9943 107.957 63.0278C108.296 61.6172 107.642 60.2484 106.49 59.9688C105.535 59.7364 104.54 60.3282 104.029 61.3405C89.603 55.707 77.001 56.9344 68.0784 59.5193C67.4996 58.6419 66.5392 58.1781 65.6518 58.4435C64.7313 58.7187 64.1742 59.6921 64.2166 60.7925C60.6511 62.115 57.9247 63.5433 56.2233 64.5408C54.899 65.3172 54.0515 66.7066 53.9939 68.2388C53.8252 72.6887 54.4721 82.0503 62.4023 85.3501L108.64 86.7641C117.005 83.2832 117.316 73.5474 117.085 69.6608C117.026 68.6569 116.47 67.7524 115.602 67.2423Z" fill="white"/>
<g opacity="0.3">
<path d="M117.085 69.6603C117.048 69.0325 116.817 68.4437 116.437 67.9661C116.693 70.4102 116.581 72.9349 115.479 74.5169C112.76 78.4202 107.393 76.3223 107.393 76.3223C107.393 76.3223 101.089 62.2647 85.5524 62.5143C66.5382 62.8195 63.6486 74.9073 63.6486 74.9073C63.6486 74.9073 60.9371 77.3469 56.9308 74.5169C54.9962 73.1501 54.2749 70.3053 54.0447 67.7278C54.0185 67.8957 54.0008 68.0661 53.9944 68.2384C53.8258 72.6883 54.4726 82.0499 62.4028 85.3496L108.64 86.7637C117.006 83.2827 117.316 73.5469 117.085 69.6603Z" fill="#371A45"/>
</g>
<path d="M63.9859 74.9565L63.2355 83.519C63.1951 83.9824 62.7859 84.325 62.3219 84.2847C61.858 84.2443 61.5149 83.8356 61.5558 83.3723C61.5587 83.3393 61.5637 83.3068 61.5701 83.2753L63.3114 74.8581C63.3494 74.6734 63.5303 74.5548 63.7152 74.5932C63.8863 74.6281 64.0012 74.7862 63.9859 74.9565Z" fill="#371A45"/>
<path d="M107.73 76.2731L109.472 84.6904C109.566 85.1458 109.272 85.5914 108.816 85.6854C108.36 85.7794 107.914 85.4865 107.82 85.0311C107.814 84.9991 107.809 84.9661 107.806 84.9341L107.055 76.3716C107.039 76.184 107.178 76.0185 107.366 76.0018C107.54 75.9865 107.696 76.1057 107.73 76.2731Z" fill="#371A45"/>
<path d="M108.64 87.6041C108.632 87.6041 108.623 87.6041 108.615 87.6036L62.3766 86.1896C62.2741 86.1866 62.173 86.1644 62.0783 86.1251C53.5442 82.5742 52.993 72.411 53.1527 68.2063C53.2218 66.3871 54.2103 64.7456 55.7973 63.8155C57.4055 62.8727 60.0027 61.4995 63.4011 60.2007C63.5544 58.9594 64.3132 57.9659 65.4101 57.638C66.445 57.3283 67.5799 57.6946 68.388 58.5572C76.6066 56.2687 89.2002 54.8345 103.692 60.311C104.452 59.3548 105.602 58.8871 106.689 59.152C108.089 59.4922 108.981 60.9377 108.879 62.5398C111.008 63.5964 114.212 65.4492 116.029 66.5176C117.14 67.1709 117.849 68.3275 117.925 69.6105C118.172 73.7768 117.795 83.8647 108.964 87.5396C108.861 87.5824 108.751 87.6041 108.64 87.6041ZM62.5856 84.5141L108.482 85.9178C116.155 82.5978 116.47 73.4913 116.245 69.71C116.202 68.9867 115.802 68.3348 115.175 67.9661C113.215 66.813 109.623 64.7372 107.599 63.7884C107.238 63.6191 107.045 63.2188 107.138 62.8308C107.365 61.8885 106.977 60.952 106.291 60.7851C105.746 60.6522 105.124 61.0357 104.781 61.7181C104.586 62.1056 104.127 62.2809 103.723 62.1233C89.0755 56.4032 76.3827 57.989 68.3135 60.3262C67.96 60.4286 67.5789 60.2888 67.3763 59.9811C66.9883 59.3932 66.3922 59.0988 65.8943 59.248C65.3742 59.4036 65.0305 60.0249 65.0586 60.7595C65.0724 61.1224 64.8516 61.4532 64.5104 61.5798C60.9695 62.8929 58.2816 64.3089 56.6502 65.265C55.5611 65.9036 54.8827 67.0267 54.8354 68.2699C54.655 73.0265 55.428 81.4314 62.5856 84.5141Z" fill="#371A45"/>
<path d="M56.8325 109.159C56.8325 109.159 49.7267 90.3814 58.4945 82.422C62.7542 78.5521 73.1899 79.0292 79.78 79.7988C83.6029 80.2439 87.4691 80.2439 91.2915 79.7988C97.8846 79.0287 108.317 78.5516 112.58 82.422C121.348 90.3819 114.239 109.159 114.239 109.159" fill="#606060"/>
<path d="M56.8326 110C56.4924 110 56.1724 109.792 56.0448 109.456C55.7465 108.667 48.8413 90.0496 57.9281 81.8002C62.2804 77.8456 72.267 78.0751 79.8777 78.9643C83.6321 79.4015 87.4396 79.4015 91.1939 78.9643C98.8047 78.0756 108.791 77.8461 113.146 81.8002C122.233 90.0496 115.325 108.668 115.026 109.456C114.862 109.89 114.376 110.11 113.941 109.945C113.506 109.781 113.287 109.296 113.451 108.862C113.52 108.679 120.254 90.5252 112.013 83.0439C107.922 79.3286 97.3355 79.9391 91.3887 80.6338C87.5047 81.0858 83.566 81.0858 79.682 80.6338C73.7352 79.9391 63.1496 79.3286 59.0605 83.0439C50.8114 90.5326 57.5504 108.679 57.6195 108.862C57.7836 109.296 57.5642 109.781 57.1294 109.946C57.0323 109.983 56.9317 110 56.8326 110Z" fill="#371A45"/>
<path d="M108.403 109.159C108.403 109.159 114.063 94.1992 107.08 87.8582C103.686 84.7785 95.3722 85.1561 90.122 85.7681C87.0762 86.1251 83.9983 86.1251 80.9495 85.7681C75.6993 85.1561 67.3885 84.7785 63.9941 87.8582C57.0085 94.1992 62.6688 109.159 62.6688 109.159" fill="#606060"/>
<path d="M108.403 110C108.304 110 108.204 109.982 108.105 109.945C107.671 109.781 107.451 109.296 107.615 108.862C107.67 108.718 112.991 94.3612 106.514 88.4805C104.136 86.3225 98.3486 85.6559 90.2198 86.6031C87.1138 86.9675 83.9614 86.9675 80.8519 86.6031C72.7245 85.6559 66.9385 86.323 64.5607 88.4805C58.0819 94.3617 63.4026 108.718 63.4568 108.862C63.621 109.296 63.4016 109.781 62.9667 109.945C62.5309 110.109 62.0463 109.89 61.8821 109.456C61.643 108.824 56.1034 93.8856 63.4287 87.2363C66.9454 84.0459 74.9515 84.2231 81.0477 84.9331C84.028 85.2822 87.0482 85.2817 90.0245 84.9331C96.1232 84.2226 104.13 84.0454 107.647 87.2358C114.969 93.8851 109.43 108.823 109.191 109.456C109.063 109.793 108.742 110 108.403 110Z" fill="#371A45"/>
<path d="M62.6694 109.159C62.6694 109.159 57.0086 94.1991 63.9942 87.8581C67.3886 84.7784 75.6994 85.1561 80.9495 85.7676C83.9984 86.125 87.0763 86.125 90.1221 85.7676C95.3723 85.1556 103.686 84.7779 107.08 87.8581C114.063 94.1991 108.402 109.159 108.402 109.159" fill="#606060"/>
<g opacity="0.3">
<path d="M60.5859 109.159C60.5859 109.159 54.4123 92.728 62.0309 85.7631C65.733 82.3802 74.7961 82.7952 80.522 83.4673C83.8469 83.8597 87.2039 83.8597 90.5259 83.4673C96.2513 82.7952 105.318 82.3807 109.02 85.7631C116.635 92.728 110.462 109.159 110.462 109.159" fill="#371A45"/>
</g>
<path d="M62.6694 110C62.3292 110 62.0092 109.792 61.8815 109.456C61.6424 108.823 56.1029 93.8855 63.4276 87.2367C66.9448 84.0458 74.9514 84.223 81.0471 84.9335C84.0269 85.2826 87.0471 85.2826 90.0245 84.9335C96.1226 84.223 104.129 84.0458 107.647 87.2367C114.969 93.886 109.43 108.824 109.19 109.457C109.026 109.891 108.54 110.11 108.105 109.946C107.671 109.782 107.451 109.297 107.615 108.862C107.67 108.718 112.991 94.3621 106.515 88.4809C104.136 86.3229 98.3496 85.6558 90.2202 86.6036C87.1142 86.9684 83.9618 86.9679 80.8519 86.6036C72.725 85.6568 66.9394 86.3234 64.5606 88.4814C58.074 94.3694 63.4025 108.718 63.4572 108.862C63.6214 109.297 63.402 109.782 62.9672 109.946C62.8691 109.982 62.768 110 62.6694 110Z" fill="#371A45"/>
</svg>
